<?xml version="1.0" standalone="no"?>
<!DOCTYPE svg PUBLIC "-//W3C//DTD SVG 20010904//EN"
 "http://www.w3.org/TR/2001/REC-SVG-20010904/DTD/svg10.dtd">
<svg version="1.0" xmlns="http://www.w3.org/2000/svg"
 width="100.000000pt" height="106.000000pt" viewBox="0 0 100.000000 106.000000"
 preserveAspectRatio="xMidYMid meet">

<g transform="translate(0.000000,106.000000) scale(0.100000,-0.100000)"
fill="#000000" stroke="none">
<path d="M452 950 c-64 -13 -157 -67 -203 -117 -124 -134 -132 -340 -20 -488
70 -93 180 -146 301 -146 83 0 149 20 217 67 187 129 217 394 64 566 -82 92
-238 143 -359 118z m98 -77 c0 -10 -16 -31 -35 -46 -26 -21 -35 -36 -35 -57 0
-25 4 -30 24 -30 13 0 40 7 61 15 55 24 155 6 155 -27 0 -7 -37 -8 -104 -3
-116 8 -159 -5 -176 -51 -25 -66 3 -114 68 -114 61 0 80 -10 92 -45 8 -24 8
-39 -1 -58 -9 -20 -8 -32 6 -60 9 -20 22 -38 29 -40 23 -9 89 36 99 68 5 17
16 37 23 46 8 8 14 22 14 29 0 7 11 28 25 45 l24 33 -20 18 c-12 10 -25 26
-30 35 -7 14 -5 16 10 12 10 -3 28 0 39 6 18 9 20 6 25 -34 8 -55 -6 -132 -33
-185 -84 -164 -300 -220 -452 -117 -43 28 -48 36 -48 69 0 20 8 49 17 66 21
37 13 58 -26 67 -20 4 -37 17 -46 34 -7 15 -20 33 -28 40 -12 9 -13 21 -6 52
32 143 151 245 287 248 34 1 42 -2 42 -16z"/>
</g>
</svg>
