<?xml version="1.0" standalone="no"?>
<!DOCTYPE svg PUBLIC "-//W3C//DTD SVG 20010904//EN"
 "http://www.w3.org/TR/2001/REC-SVG-20010904/DTD/svg10.dtd">
<svg version="1.0" xmlns="http://www.w3.org/2000/svg"
 width="126.000000pt" height="116.000000pt" viewBox="0 0 126.000000 116.000000"
 preserveAspectRatio="xMidYMid meet">

<g transform="translate(0.000000,116.000000) scale(0.100000,-0.100000)"
fill="#000000" stroke="none">
<path d="M587 854 c-4 -4 -7 -34 -7 -66 l0 -58 30 0 31 0 -3 63 c-3 54 -6 62
-23 65 -12 2 -24 0 -28 -4z"/>
<path d="M337 742 c-16 -17 -14 -21 28 -62 l45 -44 21 21 21 21 -37 41 c-41
46 -54 49 -78 23z"/>
<path d="M805 719 l-37 -41 21 -21 21 -21 45 44 c42 41 44 45 28 62 -24 26
-37 23 -78 -23z"/>
<path d="M234 496 c-15 -38 0 -51 55 -51 57 0 80 17 68 49 -9 22 -115 23 -123
2z"/>
<path d="M863 494 c-12 -32 11 -49 68 -49 53 0 54 0 54 30 0 30 -1 30 -58 33
-46 2 -58 0 -64 -14z"/>
<path d="M422 443 l3 -28 185 0 185 0 3 28 3 27 -191 0 -191 0 3 -27z"/>
</g>
</svg>
