<?xml version="1.0" standalone="no"?>
<!DOCTYPE svg PUBLIC "-//W3C//DTD SVG 20010904//EN"
 "http://www.w3.org/TR/2001/REC-SVG-20010904/DTD/svg10.dtd">
<svg version="1.0" xmlns="http://www.w3.org/2000/svg"
 width="130.000000pt" height="108.000000pt" viewBox="0 0 130.000000 108.000000"
 preserveAspectRatio="xMidYMid meet">

<g transform="translate(0.000000,108.000000) scale(0.100000,-0.100000)"
fill="#000000" stroke="none">
<path d="M524 860 c-32 -13 -38 -40 -14 -72 19 -26 20 -41 20 -319 l0 -291 33
-33 c44 -44 94 -54 143 -28 71 37 74 51 74 374 0 246 2 288 15 293 23 8 18 53
-7 70 -17 12 -48 16 -133 15 -60 0 -119 -4 -131 -9z m196 -235 l0 -145 -65 0
-65 0 0 145 0 145 65 0 65 0 0 -145z"/>
</g>
</svg>
